<?xml version="1.0" encoding="UTF-8"?>
<svg width="980px" height="400px" viewBox="0 0 980 400" version="1.1" xmlns="http://www.w3.org/2000/svg" xmlns:xlink="http://www.w3.org/1999/xlink">
    <!-- Generator: Sketch 3.8.3 (29802) - http://www.bohemiancoding.com/sketch -->
    <title>Slice 1</title>
    <desc>Created with Sketch.</desc>
    <defs>
        <circle id="path-1" cx="128" cy="128" r="128"></circle>
    </defs>
    <g id="Page-1" stroke="none" stroke-width="1" fill="none" fill-rule="evenodd">
        <g id="github-banner" transform="translate(-16.000000, -21.000000)">
            <g id="Oval-1-+-noun_6571_cc" transform="translate(378.000000, 93.000000)">
                <g id="Shape">
                    <mask id="mask-2" fill="white">
                        <use xlink:href="#path-1"></use>
                    </mask>
                    <use id="Mask" stroke="#333D45" xlink:href="#path-1"></use>
                    <path d="M177.182522,-72 L78.0344638,-72 C65.8658841,-72 56,-62.1428099 56,-49.9814876 L56,186.970413 C56,199.131736 65.8658841,208.991736 78.0344638,208.991736 L177.182522,208.991736 C189.351101,208.991736 199.216986,199.131736 199.216986,186.970413 L199.216986,-49.9814876 C199.216986,-62.1428099 189.351101,-72 177.182522,-72 L177.182522,-72 Z M116.772609,-48.6355372 L138.444377,-48.6355372 C140.063855,-48.6355372 141.37687,-47.3233058 141.37687,-45.7019835 C141.37687,-44.0834711 140.063855,-42.7712397 138.444377,-42.7712397 L116.772609,-42.7712397 C115.150319,-42.7712397 113.837304,-44.0834711 113.837304,-45.7019835 C113.837304,-47.3233058 115.150319,-48.6355372 116.772609,-48.6355372 L116.772609,-48.6355372 Z M104.142928,-49.7595041 C106.074493,-49.7595041 107.640551,-48.1943802 107.640551,-46.2639669 C107.640551,-44.3335537 106.074493,-42.7684298 104.142928,-42.7684298 C102.211362,-42.7684298 100.645304,-44.3335537 100.645304,-46.2639669 C100.645304,-48.1943802 102.214174,-49.7595041 104.142928,-49.7595041 L104.142928,-49.7595041 Z M127.608493,197.111405 C120.00313,197.111405 113.837304,190.952066 113.837304,183.35124 C113.837304,175.747603 120.00313,169.588264 127.608493,169.588264 C135.213855,169.588264 141.37687,175.747603 141.37687,183.35124 C141.37687,190.952066 135.213855,197.111405 127.608493,197.111405 L127.608493,197.111405 Z M188.198348,159.787273 L67.0186377,159.787273 L67.0186377,-22.7955372 L188.198348,-22.7955372 L188.198348,159.787273 L188.198348,159.787273 Z" fill="#333D45" mask="url(#mask-2)"></path>
                </g>
            </g>
            <g id="Group" transform="translate(447.000000, 187.000000)" fill="#4F5B66">
                <g transform="translate(0.000000, 0.062328)" id="Shape">
                    <path d="M0,0.111261017 L117,0.111261017 L117,63.6253853 L0,63.6253853 L0,0.111261017 Z M9,9.18470734 L9,18.2581537 L18,18.2581537 L18,9.18470734 L9,9.18470734 Z M27,9.18470734 L27,18.2581537 L36,18.2581537 L36,9.18470734 L27,9.18470734 Z M45,9.18470734 L45,18.2581537 L54,18.2581537 L54,9.18470734 L45,9.18470734 Z M63,9.18470734 L63,18.2581537 L72,18.2581537 L72,9.18470734 L63,9.18470734 Z M81,9.18470734 L81,18.2581537 L90,18.2581537 L90,9.18470734 L81,9.18470734 Z M99,9.18470734 L99,18.2581537 L108,18.2581537 L108,9.18470734 L99,9.18470734 Z M18,27.3316 L18,36.4050463 L27,36.4050463 L27,27.3316 L18,27.3316 Z M36,27.3316 L36,36.4050463 L45,36.4050463 L45,27.3316 L36,27.3316 Z M54,27.3316 L54,36.4050463 L63,36.4050463 L63,27.3316 L54,27.3316 Z M72,27.3316 L72,36.4050463 L81,36.4050463 L81,27.3316 L72,27.3316 Z M90,27.3316 L90,36.4050463 L99,36.4050463 L99,27.3316 L90,27.3316 Z M9,45.4784927 L9,54.551939 L108,54.551939 L108,45.4784927 L9,45.4784927 Z"></path>
                </g>
            </g>
            <rect id="Rectangle-1" fill="#65737E" x="447" y="164" width="117" height="24"></rect>
            <rect id="Rectangle-1-Copy" fill="#A7ADBB" x="447" y="149" width="117" height="15"></rect>
            <rect id="Rectangle-1-Copy-2" fill="#C0C5CE" x="447" y="140" width="117" height="9"></rect>
            <rect id="Rectangle-1-Copy-3" fill="#DFE1E8" x="447" y="135" width="117" height="5"></rect>
        </g>
    </g>
</svg>